#N canvas 163 87 730 455 10;
#X obj 129 127 inlet~;
#X obj 129 334 outlet~;
#X obj 409 336 outlet~;
#X obj 129 280 delread4~ \$0-delayLongRight 1000;
#X obj 409 278 delread4~ \$0-delayLongLeft 1000;
#X text 276 30 stereo 'ping pong' style echo;
#X obj 338 154 inlet~;
#X obj 185 108 inlet~;
#X obj 449 239 *~;
#X obj 170 236 *~;
#X text 123 103 signal~;
#X obj 409 204 delwrite~ \$0-delayLongRight 2000;
#X obj 129 204 delwrite~ \$0-delayLongLeft 2000;
#X text 271 135 delay time \, milliseconds. Limit 2000;
#X text 138 69 decay factor (0-1 \, 1 is infinite \, >1 will amplify
exponentially);
#X obj 129 168 *~, f 8;
#X connect 0 0 15 0;
#X connect 3 0 1 0;
#X connect 3 0 9 0;
#X connect 4 0 2 0;
#X connect 4 0 8 0;
#X connect 6 0 4 0;
#X connect 6 0 3 0;
#X connect 7 0 8 1;
#X connect 7 0 9 1;
#X connect 7 0 15 1;
#X connect 8 0 11 0;
#X connect 9 0 12 0;
#X connect 15 0 12 0;
