#N canvas 0 23 396 428 10;
#X obj 67 77 inlet~;
#X obj 148 77 inlet;
#X obj 124 125 >= 1;
#X obj 124 175 >= 2;
#X obj 124 225 >= 3;
#X obj 124 275 >= 4;
#X text 66 58 signal;
#X text 128 58 stages (0-4);
#X obj 239 78 inlet;
#X text 227 59 cutoff (Hz);
#N canvas 346 239 450 300 lowPass 0;
#X obj 123 70 inlet~;
#X obj 177 70 inlet;
#X obj 123 152 *~;
#X obj 221 70 inlet;
#X obj 156 152 *~;
#X obj 221 112 == 0;
#X obj 123 196 outlet~;
#X obj 156 102 lop~;
#X connect 0 0 2 0;
#X connect 0 0 7 0;
#X connect 1 0 7 1;
#X connect 2 0 6 0;
#X connect 3 0 4 1;
#X connect 3 0 5 0;
#X connect 4 0 6 0;
#X connect 5 0 2 1;
#X connect 7 0 4 0;
#X restore 67 148 pd lowPass;
#N canvas 346 239 450 300 lowPass 0;
#X obj 123 70 inlet~;
#X obj 177 70 inlet;
#X obj 123 152 *~;
#X obj 221 70 inlet;
#X obj 156 152 *~;
#X obj 221 112 == 0;
#X obj 123 196 outlet~;
#X obj 156 102 lop~;
#X connect 0 0 2 0;
#X connect 0 0 7 0;
#X connect 1 0 7 1;
#X connect 2 0 6 0;
#X connect 3 0 4 1;
#X connect 3 0 5 0;
#X connect 4 0 6 0;
#X connect 5 0 2 1;
#X connect 7 0 4 0;
#X restore 67 198 pd lowPass;
#N canvas 346 239 450 300 lowPass 0;
#X obj 123 70 inlet~;
#X obj 177 70 inlet;
#X obj 123 152 *~;
#X obj 221 70 inlet;
#X obj 156 152 *~;
#X obj 221 112 == 0;
#X obj 123 196 outlet~;
#X obj 156 102 lop~;
#X connect 0 0 2 0;
#X connect 0 0 7 0;
#X connect 1 0 7 1;
#X connect 2 0 6 0;
#X connect 3 0 4 1;
#X connect 3 0 5 0;
#X connect 4 0 6 0;
#X connect 5 0 2 1;
#X connect 7 0 4 0;
#X restore 67 248 pd lowPass;
#N canvas 346 239 450 300 lowPass 0;
#X obj 123 70 inlet~;
#X obj 177 70 inlet;
#X obj 123 152 *~;
#X obj 221 70 inlet;
#X obj 156 152 *~;
#X obj 221 112 == 0;
#X obj 123 196 outlet~;
#X obj 156 102 lop~;
#X connect 0 0 2 0;
#X connect 0 0 7 0;
#X connect 1 0 7 1;
#X connect 2 0 6 0;
#X connect 3 0 4 1;
#X connect 3 0 5 0;
#X connect 4 0 6 0;
#X connect 5 0 2 1;
#X connect 7 0 4 0;
#X restore 67 298 pd lowPass;
#X obj 67 330 outlet~;
#X msg 239 99 \$1 20;
#X obj 239 120 line 4 5;
#X connect 0 0 10 0;
#X connect 1 0 2 0;
#X connect 1 0 3 0;
#X connect 1 0 4 0;
#X connect 1 0 5 0;
#X connect 2 0 10 2;
#X connect 3 0 11 2;
#X connect 4 0 12 2;
#X connect 5 0 13 2;
#X connect 8 0 15 0;
#X connect 10 0 11 0;
#X connect 11 0 12 0;
#X connect 12 0 13 0;
#X connect 13 0 14 0;
#X connect 15 0 16 0;
#X connect 16 0 10 1;
#X connect 16 0 11 1;
#X connect 16 0 12 1;
#X connect 16 0 13 1;
