#N canvas 1396 355 362 501 10;
#X obj 67 77 inlet~;
#N canvas 4 343 450 300 highPass 0;
#X obj 123 70 inlet~;
#X obj 156 102 hip~;
#X obj 177 70 inlet;
#X obj 123 152 *~;
#X obj 221 70 inlet;
#X obj 156 152 *~;
#X obj 221 112 == 0;
#X obj 123 196 outlet~;
#X connect 0 0 1 0;
#X connect 0 0 3 0;
#X connect 1 0 5 0;
#X connect 2 0 1 1;
#X connect 3 0 7 0;
#X connect 4 0 5 1;
#X connect 4 0 6 0;
#X connect 5 0 7 0;
#X connect 6 0 3 1;
#X restore 67 148 pd highPass;
#N canvas 4 343 450 300 highPass 0;
#X obj 123 70 inlet~;
#X obj 156 102 hip~;
#X obj 177 70 inlet;
#X obj 123 152 *~;
#X obj 221 70 inlet;
#X obj 156 152 *~;
#X obj 221 112 == 0;
#X obj 123 196 outlet~;
#X connect 0 0 1 0;
#X connect 0 0 3 0;
#X connect 1 0 5 0;
#X connect 2 0 1 1;
#X connect 3 0 7 0;
#X connect 4 0 5 1;
#X connect 4 0 6 0;
#X connect 5 0 7 0;
#X connect 6 0 3 1;
#X restore 67 198 pd highPass;
#N canvas 4 343 450 300 highPass 0;
#X obj 123 70 inlet~;
#X obj 156 102 hip~;
#X obj 177 70 inlet;
#X obj 123 152 *~;
#X obj 221 70 inlet;
#X obj 156 152 *~;
#X obj 221 112 == 0;
#X obj 123 196 outlet~;
#X connect 0 0 1 0;
#X connect 0 0 3 0;
#X connect 1 0 5 0;
#X connect 2 0 1 1;
#X connect 3 0 7 0;
#X connect 4 0 5 1;
#X connect 4 0 6 0;
#X connect 5 0 7 0;
#X connect 6 0 3 1;
#X restore 67 248 pd highPass;
#N canvas 4 343 450 300 highPass 0;
#X obj 123 70 inlet~;
#X obj 156 102 hip~;
#X obj 177 70 inlet;
#X obj 123 152 *~;
#X obj 221 70 inlet;
#X obj 156 152 *~;
#X obj 221 112 == 0;
#X obj 123 196 outlet~;
#X connect 0 0 1 0;
#X connect 0 0 3 0;
#X connect 1 0 5 0;
#X connect 2 0 1 1;
#X connect 3 0 7 0;
#X connect 4 0 5 1;
#X connect 4 0 6 0;
#X connect 5 0 7 0;
#X connect 6 0 3 1;
#X restore 67 298 pd highPass;
#X obj 148 77 inlet;
#X obj 130 125 >= 1;
#X obj 130 175 >= 2;
#X obj 130 225 >= 3;
#X obj 130 275 >= 4;
#X text 66 58 signal;
#X text 128 58 stages (0-4);
#X obj 239 78 inlet;
#X text 227 59 cutoff (Hz);
#X obj 67 340 outlet~;
#X msg 239 98 \$1 20;
#X obj 239 117 line 4 5;
#X connect 0 0 1 0;
#X connect 1 0 2 0;
#X connect 2 0 3 0;
#X connect 3 0 4 0;
#X connect 4 0 14 0;
#X connect 5 0 6 0;
#X connect 5 0 7 0;
#X connect 5 0 8 0;
#X connect 5 0 9 0;
#X connect 6 0 1 2;
#X connect 7 0 2 2;
#X connect 8 0 3 2;
#X connect 9 0 4 2;
#X connect 12 0 15 0;
#X connect 15 0 16 0;
#X connect 16 0 1 1;
#X connect 16 0 2 1;
#X connect 16 0 3 1;
#X connect 16 0 4 1;
