#N canvas 822 456 609 483 10;
#X obj 275 144 inlet~;
#X text 260 124 decay factor;
#X obj 200 311 outlet~;
#X obj 152 196 inlet~;
#X text 177 107 delay (ms);
#X obj 200 126 inlet~;
#X obj 200 237 *~, f 13;
#X obj 63 223 block~ 1;
#X obj 302 311 delwrite~ \$0-feedbackDelay 100;
#X obj 200 214 delread4~ \$0-feedbackDelay;
#X text 374 124 filter cutoff;
#X obj 389 144 inlet~;
#X obj 200 259 vcf~ 1, f 47;
#X obj 479 144 inlet;
#X text 474 124 filter q;
#X connect 0 0 6 1;
#X connect 3 0 6 0;
#X connect 5 0 9 0;
#X connect 6 0 12 0;
#X connect 9 0 6 0;
#X connect 11 0 12 1;
#X connect 12 0 8 0;
#X connect 12 0 2 0;
#X connect 12 1 8 0;
#X connect 12 1 2 0;
#X connect 13 0 12 2;
