#N canvas 0 23 974 674 10;
#X obj 99 224 inlet~;
#X obj 99 309 outlet~;
#X obj 414 309 outlet~;
#X text 101 101 SIG~;
#X obj 414 266 line~;
#X text 101 164 LEFT~;
#X text 160 164 RIGHT~;
#X obj 101 119 cnv 15 98 40 empty empty empty 20 12 0 14 -196088 -66577
0;
#X floatatom 104 128 5 0 0 0 - #0-feedback_delay_r #0-feedback_delay_s
, f 5;
#X text 102 143 delay [ms];
#X floatatom 166 138 5 0 0.999 0 - #0-feedback_decay_r #0-feedback_decay_s
, f 5;
#X text 165 121 decay;
#N canvas 773 343 450 300 initialise 0;
#X obj 360 78 loadbang;
#X msg 83 94 0.6;
#X obj 83 115 s \$0-feedback_decay_r;
#X msg 233 94 200;
#X obj 233 115 s \$0-feedback_delay_r;
#X connect 0 0 1 0;
#X connect 0 0 3 0;
#X connect 1 0 2 0;
#X connect 3 0 4 0;
#X restore 541 165 pd initialise;
#X obj 256 224 r \$0-feedback_decay_s;
#X msg 414 245 \$1 20;
#X obj 414 224 r \$0-feedback_delay_s;
#X msg 256 245 \$1 20;
#X obj 256 266 line~;
#X text 154 101 DEL+/-~;
#X obj 99 289 ./headless/echostereo, f 53;
#X obj 473 273 inlet~;
#X text 279 92 GUI wrapper for ufilter/headless/echostereo;
#X connect 0 0 19 0;
#X connect 4 0 19 2;
#X connect 13 0 16 0;
#X connect 14 0 4 0;
#X connect 15 0 14 0;
#X connect 16 0 17 0;
#X connect 17 0 19 1;
#X connect 19 0 1 0;
#X connect 19 1 2 0;
#X connect 20 0 19 2;
#X coords 0 -1 1 1 100 80 2 100 100;
