#N canvas 157 62 974 674 10;
#X obj 277 230 outlet~;
#X obj 277 100 inlet~;
#N canvas 773 343 450 300 initialise 0;
#X obj 360 78 loadbang;
#X msg 83 94 0.6;
#X obj 83 115 s \$0-feedback_decay_r;
#X msg 233 94 200;
#X obj 233 115 s \$0-feedback_delay_r;
#X connect 0 0 1 0;
#X connect 0 0 3 0;
#X connect 1 0 2 0;
#X connect 3 0 4 0;
#X restore 541 165 pd initialise;
#X obj 374 100 r \$0-feedback_delay_s;
#X obj 374 142 line~;
#X msg 374 121 \$1 20;
#X text 426 135 delay adjustment hard coded to 20 ms smoothing time
;
#X text 100 101 SIG~;
#X text 101 165 OUT~;
#X floatatom 103 150 5 0 0 0 - #0-feedback_delay_r #0-feedback_delay_s
, f 5;
#X obj 110 117 hsl 80 15 0 0.99 0 0 \$0-feedback_decay_s \$0-feedback_decay_r
empty -2 -8 0 10 -262144 -1 -1 4788 1;
#X text 104 133 feedback decay;
#X text 136 150 delay [ms];
#X text 154 101 DEL+/-~;
#X obj 327 100 inlet~;
#X obj 409 175 r \$0-feedback_decay_s;
#X text 289 42 GUI wrapper for ufilter/headless/echo;
#X obj 277 191 headless/echo \$1;
#X text 299 62 creation argument \$1 sets max delay time;
#X connect 1 0 17 0;
#X connect 3 0 5 0;
#X connect 4 0 17 1;
#X connect 5 0 4 0;
#X connect 14 0 17 1;
#X connect 15 0 17 2;
#X connect 17 0 0 0;
#X coords 0 -1 1 1 100 80 2 100 100;
