#N canvas 653 23 584 752 10;
#X text 101 102 SIG~;
#X text 101 254 OUT~;
#X floatatom 139 249 5 0 0 0 - - -, f 5;
#X text 178 102 CUT;
#X obj 20 289 inlet~;
#X obj 89 289 inlet;
#X obj 178 289 inlet;
#X text 130 218 CUTOFF;
#X text 142 231 [Hz];
#X text 132 102 STAGES;
#X text 119 153 FILTER;
#X text 119 166 STAGES;
#X text 125 139 1;
#X text 143 139 2;
#X text 161 139 3;
#X text 108 139 0;
#X obj 101 181 cnv 15 98 36 empty empty empty 20 12 0 14 -196088 -66577
0;
#X text 102 197 filter chain;
#X text 112 183 high pass;
#N canvas 0 23 450 300 initialize 1;
#X obj 366 85 loadbang;
#X msg 66 101 1;
#X obj 66 122 s \$0-stages_r;
#X obj 166 122 s \$0-cutoff_r;
#X msg 166 101 10000;
#X connect 0 0 1 0;
#X connect 0 0 4 0;
#X connect 1 0 2 0;
#X connect 4 0 3 0;
#X restore 297 161 pd initialize;
#X obj 89 310 s \$0-stages_r;
#X obj 90 335 r \$0-stages_s;
#X obj 161 356 r \$0-cutoff_s;
#X obj 178 310 s \$0-cutoff_r;
#X obj 103 119 hradio 18 1 0 4 \$0-stages_s \$0-stages_r empty 0 -8
0 10 -196088 -1 -1 1;
#X obj 178 120 vsl 15 140 20 20000 1 1 \$0-cutoff_s \$0-cutoff_r empty
0 -9 0 10 -196088 -1 -1 12505 1;
#X obj 20 376 ./headless/filterchainhp;
#X obj 20 397 outlet~;
#X text 259 98 GUI wrapper for ufilter/headless/filterchainhp;
#X connect 4 0 26 0;
#X connect 5 0 20 0;
#X connect 6 0 23 0;
#X connect 21 0 26 1;
#X connect 22 0 26 2;
#X connect 26 0 27 0;
#X coords 0 -1 1 1 100 170 2 100 100;
