#N canvas 0 23 794 602 10;
#X obj 153 341 outlet~;
#X obj 152 196 inlet~;
#X text 177 107 delay (ms);
#X obj 200 126 inlet~;
#X obj 200 237 *~, f 13;
#X obj 63 223 block~ 1;
#X obj 200 311 delwrite~ \$0-feedbackDelay 100;
#X obj 200 214 delread4~ \$0-feedbackDelay;
#X obj 200 259 lop~, f 32;
#X obj 389 144 inlet f;
#X text 374 124 filter cutoff;
#X obj 275 144 inlet~;
#X text 260 124 decay factor;
#X obj 275 166 clip~ 0 0.9999;
#X connect 1 0 4 0;
#X connect 3 0 7 0;
#X connect 4 0 8 0;
#X connect 7 0 4 0;
#X connect 8 0 6 0;
#X connect 8 0 0 0;
#X connect 9 0 8 1;
#X connect 11 0 13 0;
#X connect 13 0 4 1;
