#N canvas 0 23 1440 855 10;
#N canvas 0 23 450 278 (subpatch) 0;
#X array \$0-transfer_table 1026 float 2;
#X coords 0 1 1026 -1 190 190 1 0 0;
#X restore 105 117 graph;
#X obj 512 631 +~ 1;
#X obj 512 650 *~ 512;
#X obj 512 679 tabread4~ \$0-transfer_table;
#X obj 512 590 inlet~;
#X text 504 570 clean signal;
#X text 565 637 converting to the resolution of the transfer table
for lookup;
#X obj 512 720 outlet~;
#X text 506 742 distorted signal;
#X obj 232 377 bng 20 250 50 0 \$0-set_noise_s \$0-set_noise_r empty
17 7 0 10 -262144 -1 -1;
#X text 258 379 noise;
#X obj 100 371 cnv 2 200 2 empty empty empty 20 12 0 14 -1 -66577 0
;
#X obj 1017 77 r \$0-set_noise_s;
#X obj 1027 97 noise~;
#X obj 1017 118 tabwrite~ \$0-transfer_table;
#X obj 152 377 bng 20 250 50 0 \$0-set_sample_s \$0-set_sample_r empty
17 7 0 10 -262144 -1 -1;
#X text 177 379 signal;
#X text 108 379 sample;
#X obj 256 600 r \$0-set_sample_s;
#X obj 256 651 tabwrite~ \$0-transfer_table;
#N canvas 665 316 450 300 initialize 0;
#X obj 283 53 loadbang;
#X obj 44 90 s \$0-set_polynomial_r;
#X msg 44 69 64;
#X connect 0 0 2 0;
#X connect 2 0 1 0;
#X restore 356 43 pd initialize;
#X obj 534 220 until;
#X obj 534 241 f, f 7;
#X obj 573 257 + 1;
#X msg 604 225 0;
#X obj 723 420 pack f f;
#X obj 534 278 t f f, f 8;
#X obj 643 470 tabwrite \$0-transfer_table;
#X obj 534 179 t b b f, f 24;
#X msg 534 199 513;
#X obj 534 309 expr pow($f1 / 512 \, $f2);
#X obj 534 420 pack f f, f 16;
#X obj 534 379 expr -1 * $f1;
#X obj 108 312 hsl 185 15 0 127 0 0 \$0-set_polynomial_s \$0-set_polynomial_r
empty -2 -8 0 10 -262144 -1 -1 0 1;
#X obj 534 72 r \$0-set_polynomial_s;
#X obj 356 69 r \$0-set_linear_s;
#X obj 356 111 s \$0-set_polynomial_r;
#X text 103 328 polynomial;
#X msg 356 90 64;
#X obj 534 93 / 8;
#X obj 534 113 moses 8;
#X obj 673 144 expr ($f1 - 7);
#X obj 534 144 expr 1 / (9 - $f1);
#X text 509 43 write an x^n form function to array;
#X text 989 43 write white noise to array;
#X text 112 570 write a sample of the current input to array (highly
subject to samplerate \, among other things);
#X obj 986 596 inlet;
#X obj 986 617 s \$0-set_polynomial_r;
#X obj 768 380 + 513;
#X obj 627 379 expr 513 - $f1;
#X obj 108 351 hsl 185 15 0 127 0 0 \$0-set_sine_s \$0-set_sine_r empty
-2 -8 0 10 -262144 -1 -1 7400 1;
#X text 213 334 windowed sine;
#X text 779 43 write a sin(nx) function to array;
#X obj 784 72 r \$0-set_sine_s;
#X obj 784 135 t b f, f 13;
#X msg 784 156 1024;
#X obj 784 197 until;
#X obj 784 218 f, f 7;
#X obj 823 239 + 1;
#X obj 784 177 t f b, f 7;
#X msg 823 197 0;
#X obj 784 269 t f f, f 8;
#X obj 784 311 pack f f;
#X obj 784 332 tabwrite \$0-transfer_table;
#X obj 1105 270 expr 4*atan(1);
#X obj 1105 250 loadbang;
#X obj 784 290 expr sin($f3*$f2*$f1/1024) * cos($f3*($f1/1024) - ($f3/2))
;
#X obj 784 93 / 4;
#X obj 784 114 + 2;
#X text 978 576 control inputs for transfer table function;
#X obj 1126 596 inlet;
#X obj 1126 617 s \$0-set_sine_r;
#X connect 1 0 2 0;
#X connect 2 0 3 0;
#X connect 3 0 7 0;
#X connect 4 0 1 0;
#X connect 4 0 19 0;
#X connect 12 0 14 0;
#X connect 13 0 14 0;
#X connect 18 0 19 0;
#X connect 21 0 22 0;
#X connect 22 0 23 0;
#X connect 22 0 26 0;
#X connect 23 0 22 1;
#X connect 24 0 22 1;
#X connect 25 0 27 0;
#X connect 26 0 30 0;
#X connect 26 1 48 0;
#X connect 26 1 49 0;
#X connect 28 0 29 0;
#X connect 28 1 24 0;
#X connect 28 2 30 1;
#X connect 29 0 21 0;
#X connect 30 0 25 0;
#X connect 30 0 32 0;
#X connect 31 0 27 0;
#X connect 32 0 31 0;
#X connect 34 0 39 0;
#X connect 35 0 38 0;
#X connect 38 0 36 0;
#X connect 39 0 40 0;
#X connect 40 0 42 0;
#X connect 40 1 41 0;
#X connect 41 0 28 0;
#X connect 42 0 28 0;
#X connect 46 0 47 0;
#X connect 48 0 25 1;
#X connect 49 0 31 1;
#X connect 53 0 67 0;
#X connect 54 0 55 0;
#X connect 54 1 66 1;
#X connect 55 0 59 0;
#X connect 56 0 57 0;
#X connect 57 0 58 0;
#X connect 57 0 61 0;
#X connect 58 0 57 1;
#X connect 59 0 56 0;
#X connect 59 1 60 0;
#X connect 60 0 57 1;
#X connect 61 0 66 0;
#X connect 61 1 62 1;
#X connect 62 0 63 0;
#X connect 64 0 66 2;
#X connect 65 0 64 0;
#X connect 66 0 62 0;
#X connect 67 0 68 0;
#X connect 68 0 54 0;
#X connect 70 0 71 0;
#X coords 0 -1 1 1 200 300 2 100 100;
